<svg width="152" height="24" viewBox="0 0 152 24" fill="none" xmlns="http://www.w3.org/2000/svg">
<path d="M22.4332 10.3125L17.7615 14.8665L18.8647 21.2985C18.8884 21.4364 18.873 21.5782 18.8202 21.7078C18.7675 21.8374 18.6795 21.9497 18.5663 22.032C18.4531 22.1142 18.3191 22.1631 18.1795 22.1732C18.04 22.1833 17.9004 22.1541 17.7765 22.089L12 19.0522L6.22425 22.0882C6.10039 22.1534 5.96078 22.1825 5.82121 22.1725C5.68164 22.1624 5.54767 22.1134 5.43445 22.0312C5.32123 21.949 5.23328 21.8367 5.18054 21.7071C5.12779 21.5775 5.11237 21.4357 5.136 21.2977L6.23925 14.8657L1.56675 10.3125C1.46646 10.2148 1.39552 10.0909 1.36198 9.955C1.32843 9.81905 1.3336 9.67643 1.37692 9.54328C1.42024 9.41012 1.49997 9.29176 1.60708 9.20157C1.71419 9.11139 1.84441 9.05299 1.983 9.03299L8.43975 8.09549L11.3272 2.24399C11.58 1.73174 12.42 1.73174 12.6727 2.24399L15.5602 8.09549L22.017 9.03299C22.1553 9.05352 22.2851 9.1122 22.3918 9.20245C22.4986 9.2927 22.578 9.41093 22.6213 9.54386C22.6645 9.67679 22.6698 9.81915 22.6366 9.95493C22.6034 10.0907 22.533 10.2145 22.4332 10.3125Z" fill="#FFB618"/>
<path d="M54.4332 10.3125L49.7615 14.8665L50.8647 21.2985C50.8884 21.4364 50.873 21.5782 50.8202 21.7078C50.7675 21.8374 50.6795 21.9497 50.5663 22.032C50.4531 22.1142 50.3191 22.1631 50.1795 22.1732C50.04 22.1833 49.9004 22.1541 49.7765 22.089L44 19.0522L38.2242 22.0882C38.1004 22.1534 37.9608 22.1825 37.8212 22.1725C37.6816 22.1624 37.5477 22.1134 37.4344 22.0312C37.3212 21.949 37.2333 21.8367 37.1805 21.7071C37.1278 21.5775 37.1124 21.4357 37.136 21.2977L38.2392 14.8657L33.5667 10.3125C33.4665 10.2148 33.3955 10.0909 33.362 9.955C33.3284 9.81905 33.3336 9.67643 33.3769 9.54328C33.4202 9.41012 33.5 9.29176 33.6071 9.20157C33.7142 9.11139 33.8444 9.05299 33.983 9.03299L40.4397 8.09549L43.3272 2.24399C43.58 1.73174 44.42 1.73174 44.6727 2.24399L47.5602 8.09549L54.017 9.03299C54.1553 9.05352 54.2851 9.1122 54.3918 9.20245C54.4986 9.2927 54.578 9.41093 54.6213 9.54386C54.6645 9.67679 54.6698 9.81915 54.6366 9.95493C54.6034 10.0907 54.533 10.2145 54.4332 10.3125Z" fill="#FFB618"/>
<path d="M86.4332 10.3125L81.7615 14.8665L82.8647 21.2985C82.8884 21.4364 82.873 21.5782 82.8202 21.7078C82.7675 21.8374 82.6795 21.9497 82.5663 22.032C82.4531 22.1142 82.3191 22.1631 82.1795 22.1732C82.04 22.1833 81.9004 22.1541 81.7765 22.089L76 19.0522L70.2242 22.0882C70.1004 22.1534 69.9608 22.1825 69.8212 22.1725C69.6816 22.1624 69.5477 22.1134 69.4344 22.0312C69.3212 21.949 69.2333 21.8367 69.1805 21.7071C69.1278 21.5775 69.1124 21.4357 69.136 21.2977L70.2392 14.8657L65.5667 10.3125C65.4665 10.2148 65.3955 10.0909 65.362 9.955C65.3284 9.81905 65.3336 9.67643 65.3769 9.54328C65.4202 9.41012 65.5 9.29176 65.6071 9.20157C65.7142 9.11139 65.8444 9.05299 65.983 9.03299L72.4397 8.09549L75.3272 2.24399C75.58 1.73174 76.42 1.73174 76.6727 2.24399L79.5602 8.09549L86.017 9.03299C86.1553 9.05352 86.2851 9.1122 86.3918 9.20245C86.4986 9.2927 86.578 9.41093 86.6213 9.54386C86.6645 9.67679 86.6698 9.81915 86.6366 9.95493C86.6034 10.0907 86.533 10.2145 86.4332 10.3125Z" fill="#FFB618"/>
<path d="M118.433 10.3125L113.762 14.8665L114.865 21.2985C114.888 21.4364 114.873 21.5782 114.82 21.7078C114.767 21.8374 114.68 21.9497 114.566 22.032C114.453 22.1142 114.319 22.1631 114.18 22.1732C114.04 22.1833 113.9 22.1541 113.777 22.089L108 19.0522L102.224 22.0882C102.1 22.1534 101.961 22.1825 101.821 22.1725C101.682 22.1624 101.548 22.1134 101.434 22.0312C101.321 21.949 101.233 21.8367 101.181 21.7071C101.128 21.5775 101.112 21.4357 101.136 21.2977L102.239 14.8657L97.5668 10.3125C97.4665 10.2148 97.3955 10.0909 97.362 9.955C97.3284 9.81905 97.3336 9.67643 97.3769 9.54328C97.4202 9.41012 97.5 9.29176 97.6071 9.20157C97.7142 9.11139 97.8444 9.05299 97.983 9.03299L104.44 8.09549L107.327 2.24399C107.58 1.73174 108.42 1.73174 108.673 2.24399L111.56 8.09549L118.017 9.03299C118.155 9.05352 118.285 9.1122 118.392 9.20245C118.499 9.2927 118.578 9.41093 118.621 9.54386C118.665 9.67679 118.67 9.81915 118.637 9.95493C118.603 10.0907 118.533 10.2145 118.433 10.3125Z" fill="#FFB618"/>
<path d="M150.433 10.3125L145.762 14.8665L146.865 21.2985C146.888 21.4364 146.873 21.5782 146.82 21.7078C146.767 21.8374 146.68 21.9497 146.566 22.032C146.453 22.1142 146.319 22.1631 146.18 22.1732C146.04 22.1833 145.9 22.1541 145.777 22.089L140 19.0522L134.224 22.0882C134.1 22.1534 133.961 22.1825 133.821 22.1725C133.682 22.1624 133.548 22.1134 133.434 22.0312C133.321 21.949 133.233 21.8367 133.181 21.7071C133.128 21.5775 133.112 21.4357 133.136 21.2977L134.239 14.8657L129.567 10.3125C129.466 10.2148 129.396 10.0909 129.362 9.955C129.328 9.81905 129.334 9.67643 129.377 9.54328C129.42 9.41012 129.5 9.29176 129.607 9.20157C129.714 9.11139 129.844 9.05299 129.983 9.03299L136.44 8.09549L139.327 2.24399C139.58 1.73174 140.42 1.73174 140.673 2.24399L143.56 8.09549L150.017 9.03299C150.155 9.05352 150.285 9.1122 150.392 9.20245C150.499 9.2927 150.578 9.41093 150.621 9.54386C150.665 9.67679 150.67 9.81915 150.637 9.95493C150.603 10.0907 150.533 10.2145 150.433 10.3125Z" fill="#FFB618"/>
</svg>
